<svg width="1200" height="310" viewBox="0 0 1200 310" fill="none" xmlns="http://www.w3.org/2000/svg">
<rect x="2" y="2" width="1196" height="306" rx="153" fill="white"/>
<rect x="2" y="2" width="1196" height="306" rx="153" stroke="#DBDBDB" stroke-width="4"/>
<path d="M99.973 135.142C102.032 139.555 107.18 148.38 107.18 148.38L166.122 50L108.724 90.4943C105.378 92.8305 102.547 95.9455 100.488 99.5796C95.0826 110.741 95.0826 123.72 99.973 135.142Z" fill="url(#paint0_linear_5494_58120)"/>
<path d="M76.808 167.329C78.0949 186.279 87.6183 203.93 102.547 215.351L166.122 259.999C166.122 259.999 126.227 202.113 92.7661 144.486C89.42 138.516 87.1035 131.767 86.074 124.758C85.5592 121.643 85.5592 118.528 86.074 115.413C85.3018 116.971 83.5001 120.345 83.5001 120.345C80.154 127.354 77.8375 134.882 76.5506 142.669C75.7784 150.976 75.7784 159.282 76.808 167.329Z" fill="#A0A8D4"/>
<path d="M238.962 175.118C236.903 170.705 231.755 161.879 231.755 161.879L172.813 260L230.468 219.765C233.814 217.429 236.645 214.314 238.705 210.68C243.852 199.518 244.11 186.539 238.962 175.118Z" fill="url(#paint1_linear_5494_58120)"/>
<path d="M262.384 142.67C261.097 123.72 251.574 106.069 236.645 94.6476L173.07 50C173.07 50 212.965 107.886 246.426 165.513C249.772 171.483 252.088 178.232 253.118 185.241C253.633 188.356 253.633 191.471 253.118 194.585C253.89 193.028 255.692 189.653 255.692 189.653C259.038 182.645 261.354 175.117 262.641 167.589C263.156 159.023 263.156 150.976 262.384 142.67Z" fill="#A0A8D4"/>
<path d="M100.488 99.5796C102.547 95.9455 105.121 92.8305 108.724 90.4943L166.122 50L107.18 148.121C107.18 148.121 102.032 139.295 99.9728 134.882C95.0824 123.72 95.0824 110.741 100.488 99.5796ZM76.8078 167.33C78.0947 186.279 87.6181 203.93 102.547 215.352L166.122 259.999C166.122 259.999 126.226 202.113 92.7659 144.487C89.4198 138.516 87.1033 131.767 86.0738 124.759C85.559 121.644 85.559 118.529 86.0738 115.414C85.3016 116.971 83.4999 120.346 83.4999 120.346C80.1539 127.355 77.8374 134.882 76.5504 142.67C75.7782 150.976 75.7782 159.283 76.8078 167.33ZM238.963 175.117C236.904 170.704 231.756 161.879 231.756 161.879L172.814 259.999L230.469 219.765C233.815 217.428 236.646 214.314 238.705 210.679C243.853 199.518 244.11 186.539 238.963 175.117ZM262.128 142.929C260.841 123.98 251.317 106.329 236.389 94.9072L173.071 50C173.071 50 212.966 107.886 246.427 165.513C249.773 171.483 252.09 178.232 253.119 185.241C253.634 188.356 253.634 191.471 253.119 194.585C253.891 193.028 255.693 189.653 255.693 189.653C259.039 182.645 261.356 175.117 262.642 167.589C263.157 159.023 263.157 150.976 262.128 142.929Z" fill="url(#paint2_linear_5494_58120)"/>
<path d="M142.64 158.181L161.669 177.272L196.556 135.909" stroke="black" stroke-width="12.6936" stroke-linecap="square"/>
<path d="M374.841 104.364C374.841 110.319 373.725 115.42 371.494 119.666C369.281 123.894 366.259 127.133 362.426 129.382C358.612 131.631 354.285 132.756 349.445 132.756C344.605 132.756 340.268 131.631 336.436 129.382C332.622 127.115 329.599 123.867 327.368 119.639C325.155 115.393 324.048 110.301 324.048 104.364C324.048 98.4081 325.155 93.3163 327.368 89.0881C329.599 84.8419 332.622 81.5942 336.436 79.3452C340.268 77.0961 344.605 75.9716 349.445 75.9716C354.285 75.9716 358.612 77.0961 362.426 79.3452C366.259 81.5942 369.281 84.8419 371.494 89.0881C373.725 93.3163 374.841 98.4081 374.841 104.364ZM364.774 104.364C364.774 100.171 364.117 96.6359 362.804 93.7571C361.509 90.8603 359.709 88.6742 357.406 87.1989C355.103 85.7055 352.449 84.9588 349.445 84.9588C346.44 84.9588 343.786 85.7055 341.483 87.1989C339.18 88.6742 337.372 90.8603 336.058 93.7571C334.763 96.6359 334.115 100.171 334.115 104.364C334.115 108.556 334.763 112.1 336.058 114.997C337.372 117.876 339.18 120.062 341.483 121.555C343.786 123.031 346.44 123.768 349.445 123.768C352.449 123.768 355.103 123.031 357.406 121.555C359.709 120.062 361.509 117.876 362.804 114.997C364.117 112.1 364.774 108.556 364.774 104.364ZM388.107 132V76.7273H423.516V85.1207H398.12V100.126H421.087V108.52H398.12V132H388.107ZM436.438 132V76.7273H471.848V85.1207H446.451V100.126H469.419V108.52H446.451V132H436.438ZM494.782 76.7273V132H484.77V76.7273H494.782ZM556.736 95.3764H546.642C546.355 93.7211 545.824 92.2547 545.05 90.9773C544.276 89.6818 543.314 88.5843 542.162 87.6847C541.011 86.785 539.697 86.1103 538.222 85.6605C536.765 85.1927 535.19 84.9588 533.499 84.9588C530.494 84.9588 527.831 85.7145 525.51 87.2258C523.189 88.7192 521.372 90.9143 520.059 93.8111C518.745 96.6899 518.088 100.207 518.088 104.364C518.088 108.592 518.745 112.154 520.059 115.051C521.39 117.93 523.207 120.107 525.51 121.582C527.831 123.04 530.485 123.768 533.472 123.768C535.127 123.768 536.675 123.553 538.114 123.121C539.571 122.671 540.876 122.014 542.027 121.151C543.197 120.287 544.178 119.225 544.969 117.966C545.779 116.706 546.337 115.267 546.642 113.648L556.736 113.702C556.358 116.329 555.54 118.794 554.28 121.097C553.039 123.4 551.41 125.433 549.395 127.196C547.38 128.941 545.023 130.309 542.324 131.298C539.625 132.27 536.63 132.756 533.337 132.756C528.479 132.756 524.143 131.631 520.329 129.382C516.514 127.133 513.509 123.885 511.314 119.639C509.119 115.393 508.022 110.301 508.022 104.364C508.022 98.4081 509.128 93.3163 511.341 89.0881C513.554 84.8419 516.568 81.5942 520.383 79.3452C524.197 77.0961 528.515 75.9716 533.337 75.9716C536.414 75.9716 539.275 76.4034 541.919 77.267C544.564 78.1307 546.921 79.3991 548.99 81.0724C551.06 82.7277 552.76 84.7609 554.091 87.1719C555.441 89.5649 556.322 92.2997 556.736 95.3764ZM579.718 76.7273V132H569.706V76.7273H579.718ZM601.459 132H590.772L610.23 76.7273H622.591L642.077 132H631.389L616.627 88.0625H616.195L601.459 132ZM601.81 110.328H630.958V118.371H601.81V110.328ZM653.157 132V76.7273H663.17V123.607H687.514V132H653.157Z" fill="black"/>
<path d="M325.452 233V177.727H361.401V186.121H335.464V201.126H359.538V209.52H335.464V224.607H361.616V233H325.452ZM417.038 177.727V233H408.131L382.087 195.351H381.629V233H371.616V177.727H380.576L406.593 215.403H407.079V177.727H417.038ZM457.986 192.922C457.734 190.565 456.673 188.73 454.801 187.416C452.948 186.103 450.537 185.446 447.569 185.446C445.481 185.446 443.691 185.761 442.198 186.391C440.704 187.02 439.562 187.875 438.77 188.955C437.979 190.034 437.574 191.267 437.556 192.652C437.556 193.804 437.817 194.802 438.338 195.648C438.878 196.493 439.607 197.213 440.525 197.807C441.442 198.383 442.459 198.868 443.574 199.264C444.69 199.66 445.814 199.993 446.948 200.263L452.13 201.558C454.217 202.044 456.223 202.701 458.148 203.528C460.091 204.356 461.828 205.4 463.357 206.659C464.904 207.919 466.128 209.439 467.027 211.22C467.927 213.001 468.377 215.089 468.377 217.482C468.377 220.72 467.549 223.572 465.894 226.037C464.239 228.484 461.846 230.4 458.715 231.786C455.602 233.153 451.833 233.837 447.407 233.837C443.106 233.837 439.373 233.171 436.206 231.839C433.058 230.508 430.593 228.565 428.811 226.01C427.048 223.455 426.095 220.342 425.951 216.672H435.801C435.945 218.597 436.539 220.198 437.583 221.476C438.626 222.753 439.985 223.707 441.658 224.337C443.349 224.966 445.239 225.281 447.326 225.281C449.503 225.281 451.41 224.957 453.047 224.31C454.703 223.644 455.998 222.726 456.934 221.557C457.869 220.369 458.346 218.984 458.364 217.401C458.346 215.961 457.923 214.774 457.096 213.838C456.268 212.884 455.107 212.093 453.614 211.463C452.139 210.815 450.411 210.24 448.432 209.736L442.144 208.116C437.592 206.947 433.993 205.175 431.348 202.8C428.721 200.407 427.408 197.231 427.408 193.273C427.408 190.016 428.29 187.164 430.053 184.717C431.834 182.27 434.254 180.372 437.313 179.023C440.372 177.655 443.835 176.972 447.703 176.972C451.626 176.972 455.062 177.655 458.013 179.023C460.982 180.372 463.312 182.252 465.003 184.663C466.694 187.056 467.567 189.809 467.621 192.922H457.986ZM526.193 192.922C525.941 190.565 524.88 188.73 523.009 187.416C521.155 186.103 518.744 185.446 515.776 185.446C513.688 185.446 511.898 185.761 510.405 186.391C508.911 187.02 507.769 187.875 506.977 188.955C506.186 190.034 505.781 191.267 505.763 192.652C505.763 193.804 506.024 194.802 506.545 195.648C507.085 196.493 507.814 197.213 508.732 197.807C509.649 198.383 510.666 198.868 511.781 199.264C512.897 199.66 514.021 199.993 515.155 200.263L520.337 201.558C522.424 202.044 524.43 202.701 526.355 203.528C528.298 204.356 530.035 205.4 531.564 206.659C533.111 207.919 534.335 209.439 535.234 211.22C536.134 213.001 536.584 215.089 536.584 217.482C536.584 220.72 535.756 223.572 534.101 226.037C532.446 228.484 530.053 230.4 526.922 231.786C523.809 233.153 520.04 233.837 515.614 233.837C511.313 233.837 507.58 233.171 504.413 231.839C501.265 230.508 498.8 228.565 497.018 226.01C495.255 223.455 494.302 220.342 494.158 216.672H504.009C504.152 218.597 504.746 220.198 505.79 221.476C506.833 222.753 508.192 223.707 509.865 224.337C511.556 224.966 513.446 225.281 515.533 225.281C517.71 225.281 519.617 224.957 521.254 224.31C522.91 223.644 524.205 222.726 525.141 221.557C526.076 220.369 526.553 218.984 526.571 217.401C526.553 215.961 526.13 214.774 525.303 213.838C524.475 212.884 523.314 212.093 521.821 211.463C520.346 210.815 518.618 210.24 516.639 209.736L510.351 208.116C505.799 206.947 502.2 205.175 499.555 202.8C496.929 200.407 495.615 197.231 495.615 193.273C495.615 190.016 496.497 187.164 498.26 184.717C500.041 182.27 502.461 180.372 505.52 179.023C508.579 177.655 512.042 176.972 515.911 176.972C519.833 176.972 523.269 177.655 526.22 179.023C529.189 180.372 531.519 182.252 533.21 184.663C534.902 187.056 535.774 189.809 535.828 192.922H526.193ZM563.431 233.81C559.275 233.81 555.685 232.946 552.662 231.219C549.658 229.473 547.346 227.009 545.726 223.824C544.107 220.621 543.297 216.852 543.297 212.516C543.297 208.251 544.107 204.509 545.726 201.288C547.364 198.05 549.649 195.531 552.581 193.732C555.514 191.914 558.96 191.006 562.918 191.006C565.473 191.006 567.884 191.42 570.151 192.247C572.436 193.057 574.451 194.316 576.196 196.026C577.96 197.735 579.345 199.912 580.353 202.557C581.36 205.184 581.864 208.314 581.864 211.949V214.945H547.885V208.359H572.499C572.481 206.488 572.076 204.824 571.284 203.366C570.493 201.891 569.386 200.731 567.965 199.885C566.561 199.039 564.924 198.616 563.053 198.616C561.056 198.616 559.301 199.102 557.79 200.074C556.279 201.027 555.1 202.287 554.255 203.852C553.427 205.4 553.004 207.1 552.986 208.953V214.702C552.986 217.113 553.427 219.182 554.309 220.909C555.19 222.618 556.423 223.932 558.006 224.849C559.589 225.749 561.443 226.199 563.566 226.199C564.987 226.199 566.274 226.001 567.425 225.605C568.577 225.191 569.575 224.589 570.421 223.797C571.266 223.005 571.905 222.025 572.337 220.855L581.459 221.881C580.883 224.292 579.786 226.397 578.167 228.196C576.565 229.977 574.514 231.363 572.013 232.352C569.512 233.324 566.651 233.81 563.431 233.81ZM590.129 233V191.545H599.602V198.455H600.034C600.79 196.062 602.085 194.217 603.92 192.922C605.774 191.608 607.888 190.952 610.263 190.952C610.803 190.952 611.405 190.979 612.071 191.033C612.755 191.069 613.321 191.132 613.771 191.222V200.209C613.357 200.065 612.701 199.939 611.801 199.831C610.92 199.705 610.065 199.642 609.237 199.642C607.456 199.642 605.855 200.029 604.433 200.803C603.03 201.558 601.923 202.611 601.114 203.96C600.304 205.31 599.899 206.866 599.899 208.629V233H590.129ZM658.552 191.545L643.789 233H632.994L618.231 191.545H628.649L638.176 222.339H638.608L648.162 191.545H658.552ZM665.313 233V191.545H675.083V233H665.313ZM670.225 185.662C668.677 185.662 667.346 185.149 666.23 184.124C665.115 183.08 664.557 181.83 664.557 180.372C664.557 178.897 665.115 177.646 666.23 176.621C667.346 175.577 668.677 175.055 670.225 175.055C671.79 175.055 673.122 175.577 674.219 176.621C675.335 177.646 675.892 178.897 675.892 180.372C675.892 181.83 675.335 183.08 674.219 184.124C673.122 185.149 671.79 185.662 670.225 185.662ZM703.212 233.81C699.073 233.81 695.52 232.901 692.551 231.084C689.6 229.267 687.324 226.757 685.723 223.554C684.14 220.333 683.348 216.627 683.348 212.435C683.348 208.224 684.158 204.509 685.777 201.288C687.396 198.05 689.681 195.531 692.632 193.732C695.601 191.914 699.109 191.006 703.158 191.006C706.522 191.006 709.5 191.626 712.091 192.868C714.7 194.091 716.778 195.828 718.325 198.077C719.873 200.308 720.754 202.917 720.97 205.903H711.632C711.254 203.906 710.355 202.242 708.933 200.911C707.53 199.561 705.65 198.886 703.293 198.886C701.295 198.886 699.541 199.426 698.03 200.506C696.518 201.567 695.34 203.097 694.494 205.094C693.667 207.091 693.253 209.484 693.253 212.273C693.253 215.098 693.667 217.527 694.494 219.56C695.322 221.575 696.482 223.131 697.976 224.229C699.487 225.308 701.259 225.848 703.293 225.848C704.732 225.848 706.018 225.578 707.152 225.038C708.304 224.481 709.266 223.68 710.04 222.636C710.813 221.593 711.344 220.324 711.632 218.831H720.97C720.736 221.764 719.873 224.364 718.379 226.631C716.886 228.88 714.853 230.643 712.28 231.92C709.707 233.18 706.684 233.81 703.212 233.81ZM747.345 233.81C743.189 233.81 739.599 232.946 736.576 231.219C733.572 229.473 731.26 227.009 729.64 223.824C728.021 220.621 727.211 216.852 727.211 212.516C727.211 208.251 728.021 204.509 729.64 201.288C731.278 198.05 733.563 195.531 736.495 193.732C739.428 191.914 742.874 191.006 746.832 191.006C749.387 191.006 751.798 191.42 754.065 192.247C756.35 193.057 758.365 194.316 760.11 196.026C761.874 197.735 763.259 199.912 764.267 202.557C765.274 205.184 765.778 208.314 765.778 211.949V214.945H731.799V208.359H756.413C756.395 206.488 755.99 204.824 755.199 203.366C754.407 201.891 753.3 200.731 751.879 199.885C750.475 199.039 748.838 198.616 746.967 198.616C744.97 198.616 743.216 199.102 741.704 200.074C740.193 201.027 739.014 202.287 738.169 203.852C737.341 205.4 736.918 207.1 736.9 208.953V214.702C736.9 217.113 737.341 219.182 738.223 220.909C739.104 222.618 740.337 223.932 741.92 224.849C743.503 225.749 745.357 226.199 747.48 226.199C748.901 226.199 750.188 226.001 751.339 225.605C752.491 225.191 753.489 224.589 754.335 223.797C755.181 223.005 755.819 222.025 756.251 220.855L765.373 221.881C764.797 224.292 763.7 226.397 762.081 228.196C760.479 229.977 758.428 231.363 755.927 232.352C753.426 233.324 750.565 233.81 747.345 233.81ZM793.327 233V177.727H814.054C818.3 177.727 821.863 178.519 824.741 180.102C827.638 181.686 829.824 183.863 831.3 186.634C832.793 189.386 833.54 192.517 833.54 196.026C833.54 199.57 832.793 202.719 831.3 205.472C829.806 208.224 827.602 210.393 824.688 211.976C821.773 213.541 818.183 214.324 813.919 214.324H800.182V206.092H812.57C815.053 206.092 817.086 205.661 818.669 204.797C820.252 203.933 821.422 202.746 822.178 201.234C822.951 199.723 823.338 197.987 823.338 196.026C823.338 194.064 822.951 192.337 822.178 190.844C821.422 189.35 820.243 188.19 818.642 187.362C817.059 186.517 815.017 186.094 812.516 186.094H803.339V233H793.327ZM841.805 233V191.545H851.278V198.455H851.71C852.466 196.062 853.761 194.217 855.596 192.922C857.449 191.608 859.564 190.952 861.939 190.952C862.478 190.952 863.081 190.979 863.747 191.033C864.431 191.069 864.997 191.132 865.447 191.222V200.209C865.033 200.065 864.377 199.939 863.477 199.831C862.595 199.705 861.741 199.642 860.913 199.642C859.132 199.642 857.53 200.029 856.109 200.803C854.706 201.558 853.599 202.611 852.789 203.96C851.98 205.31 851.575 206.866 851.575 208.629V233H841.805ZM888.313 233.81C884.265 233.81 880.756 232.919 877.788 231.138C874.819 229.357 872.516 226.865 870.879 223.662C869.259 220.459 868.45 216.717 868.45 212.435C868.45 208.152 869.259 204.401 870.879 201.18C872.516 197.96 874.819 195.459 877.788 193.678C880.756 191.896 884.265 191.006 888.313 191.006C892.362 191.006 895.87 191.896 898.839 193.678C901.808 195.459 904.102 197.96 905.721 201.18C907.358 204.401 908.177 208.152 908.177 212.435C908.177 216.717 907.358 220.459 905.721 223.662C904.102 226.865 901.808 229.357 898.839 231.138C895.87 232.919 892.362 233.81 888.313 233.81ZM888.367 225.983C890.562 225.983 892.397 225.38 893.873 224.175C895.348 222.951 896.446 221.314 897.165 219.263C897.903 217.212 898.272 214.927 898.272 212.408C898.272 209.871 897.903 207.577 897.165 205.526C896.446 203.456 895.348 201.81 893.873 200.587C892.397 199.363 890.562 198.751 888.367 198.751C886.118 198.751 884.247 199.363 882.754 200.587C881.278 201.81 880.172 203.456 879.434 205.526C878.714 207.577 878.354 209.871 878.354 212.408C878.354 214.927 878.714 217.212 879.434 219.263C880.172 221.314 881.278 222.951 882.754 224.175C884.247 225.38 886.118 225.983 888.367 225.983ZM952.087 191.545L937.325 233H926.529L911.766 191.545H922.184L931.711 222.339H932.143L941.697 191.545H952.087ZM958.848 233V191.545H968.618V233H958.848ZM963.76 185.662C962.213 185.662 960.881 185.149 959.766 184.124C958.65 183.08 958.092 181.83 958.092 180.372C958.092 178.897 958.65 177.646 959.766 176.621C960.881 175.577 962.213 175.055 963.76 175.055C965.325 175.055 966.657 175.577 967.754 176.621C968.87 177.646 969.428 178.897 969.428 180.372C969.428 181.83 968.87 183.08 967.754 184.124C966.657 185.149 965.325 185.662 963.76 185.662ZM994.048 233.729C990.791 233.729 987.877 232.892 985.304 231.219C982.731 229.545 980.698 227.116 979.204 223.932C977.711 220.747 976.964 216.879 976.964 212.327C976.964 207.721 977.72 203.834 979.231 200.668C980.761 197.483 982.821 195.081 985.412 193.462C988.002 191.824 990.89 191.006 994.075 191.006C996.504 191.006 998.501 191.42 1000.07 192.247C1001.63 193.057 1002.87 194.037 1003.79 195.189C1004.71 196.322 1005.42 197.393 1005.92 198.401H1006.33V177.727H1016.12V233H1006.52V226.469H1005.92C1005.42 227.476 1004.69 228.547 1003.74 229.68C1002.78 230.796 1001.52 231.75 999.958 232.541C998.393 233.333 996.423 233.729 994.048 233.729ZM996.774 225.713C998.843 225.713 1000.61 225.155 1002.06 224.04C1003.52 222.906 1004.63 221.332 1005.38 219.317C1006.14 217.302 1006.52 214.954 1006.52 212.273C1006.52 209.592 1006.14 207.262 1005.38 205.283C1004.65 203.304 1003.55 201.765 1002.09 200.668C1000.65 199.57 998.879 199.021 996.774 199.021C994.597 199.021 992.779 199.588 991.322 200.722C989.865 201.855 988.767 203.42 988.029 205.418C987.292 207.415 986.923 209.7 986.923 212.273C986.923 214.864 987.292 217.176 988.029 219.209C988.785 221.224 989.892 222.816 991.349 223.986C992.824 225.137 994.633 225.713 996.774 225.713ZM1044.89 233.81C1040.73 233.81 1037.14 232.946 1034.12 231.219C1031.11 229.473 1028.8 227.009 1027.18 223.824C1025.56 220.621 1024.75 216.852 1024.75 212.516C1024.75 208.251 1025.56 204.509 1027.18 201.288C1028.82 198.05 1031.11 195.531 1034.04 193.732C1036.97 191.914 1040.42 191.006 1044.38 191.006C1046.93 191.006 1049.34 191.42 1051.61 192.247C1053.89 193.057 1055.91 194.316 1057.65 196.026C1059.42 197.735 1060.8 199.912 1061.81 202.557C1062.82 205.184 1063.32 208.314 1063.32 211.949V214.945H1029.34V208.359H1053.96C1053.94 206.488 1053.53 204.824 1052.74 203.366C1051.95 201.891 1050.84 200.731 1049.42 199.885C1048.02 199.039 1046.38 198.616 1044.51 198.616C1042.51 198.616 1040.76 199.102 1039.25 200.074C1037.74 201.027 1036.56 202.287 1035.71 203.852C1034.88 205.4 1034.46 207.1 1034.44 208.953V214.702C1034.44 217.113 1034.88 219.182 1035.77 220.909C1036.65 222.618 1037.88 223.932 1039.46 224.849C1041.05 225.749 1042.9 226.199 1045.02 226.199C1046.44 226.199 1047.73 226.001 1048.88 225.605C1050.03 225.191 1051.03 224.589 1051.88 223.797C1052.72 223.005 1053.36 222.025 1053.79 220.855L1062.92 221.881C1062.34 224.292 1061.24 226.397 1059.62 228.196C1058.02 229.977 1055.97 231.363 1053.47 232.352C1050.97 233.324 1048.11 233.81 1044.89 233.81ZM1071.59 233V191.545H1081.06V198.455H1081.49C1082.25 196.062 1083.54 194.217 1085.38 192.922C1087.23 191.608 1089.34 190.952 1091.72 190.952C1092.26 190.952 1092.86 190.979 1093.53 191.033C1094.21 191.069 1094.78 191.132 1095.23 191.222V200.209C1094.81 200.065 1094.16 199.939 1093.26 199.831C1092.38 199.705 1091.52 199.642 1090.69 199.642C1088.91 199.642 1087.31 200.029 1085.89 200.803C1084.49 201.558 1083.38 202.611 1082.57 203.96C1081.76 205.31 1081.36 206.866 1081.36 208.629V233H1071.59Z" fill="#538FFF"/>
<defs>
<linearGradient id="paint0_linear_5494_58120" x1="168.803" y1="52.4611" x2="92.485" y2="134.497" gradientUnits="userSpaceOnUse">
<stop offset="0.58" stop-color="#A0A8D4"/>
<stop offset="0.73" stop-color="#8791C7"/>
<stop offset="0.91" stop-color="#6470B4"/>
</linearGradient>
<linearGradient id="paint1_linear_5494_58120" x1="170.39" y1="257.712" x2="246.679" y2="175.735" gradientUnits="userSpaceOnUse">
<stop offset="0.58" stop-color="#A0A8D4"/>
<stop offset="0.73" stop-color="#8791C7"/>
<stop offset="0.91" stop-color="#6470B4"/>
</linearGradient>
<linearGradient id="paint2_linear_5494_58120" x1="169.526" y1="48.9619" x2="169.526" y2="260.778" gradientUnits="userSpaceOnUse">
<stop stop-color="#513EFF"/>
<stop offset="0.18" stop-color="#5157FF"/>
<stop offset="0.57" stop-color="#5298FF"/>
<stop offset="1" stop-color="#52E5FF"/>
</linearGradient>
</defs>
</svg>
