<svg width="1400" height="313" viewBox="0 0 1400 313" fill="none" xmlns="http://www.w3.org/2000/svg">
<path fill-rule="evenodd" clip-rule="evenodd" d="M1357.82 38.2084C1365.89 38.2084 1373.08 39.7847 1379.38 42.9372C1385.81 46.0897 1390.86 50.9446 1394.51 57.5018C1398.17 63.9329 1400 72.2555 1400 82.4697V140.35H1376.36V85.4961C1376.36 76.5429 1374.21 69.8596 1369.93 65.4461C1365.76 61.0326 1359.9 58.8258 1352.33 58.8258C1346.79 58.8258 1341.87 59.9607 1337.58 62.2306C1333.29 64.5004 1329.95 67.9051 1327.56 72.4447C1325.29 76.8582 1324.15 82.4697 1324.15 89.2791V140.35H1300.51V0H1324.15V51.1444C1327 48.0673 1330.41 45.5207 1334.36 43.5046C1341.17 39.9738 1348.99 38.2084 1357.82 38.2084ZM1241.94 141.674C1233.49 141.674 1225.35 140.602 1217.54 138.458C1209.84 136.189 1203.73 133.477 1199.19 130.325L1208.27 112.356C1212.81 115.256 1218.23 117.652 1224.53 119.543C1230.84 121.435 1237.14 122.381 1243.45 122.381C1250.89 122.381 1256.25 121.372 1259.53 119.354C1262.93 117.336 1264.63 114.625 1264.63 111.221C1264.63 108.446 1263.5 106.366 1261.23 104.979C1258.96 103.465 1256 102.331 1252.34 101.574C1248.68 100.817 1244.58 100.124 1240.05 99.4933C1235.63 98.8628 1231.16 98.0431 1226.62 97.0343C1222.2 95.8994 1218.17 94.3232 1214.51 92.3056C1210.85 90.1619 1207.89 87.3246 1205.62 83.7938C1203.35 80.263 1202.21 75.5973 1202.21 69.7966C1202.21 63.3655 1204.04 57.8171 1207.7 53.1514C1211.36 48.3596 1216.46 44.7027 1223.02 42.1807C1229.7 39.5325 1237.59 38.2085 1246.67 38.2085C1253.47 38.2085 1260.35 38.9651 1267.28 40.4783C1274.22 41.9915 1279.96 44.1352 1284.5 46.9094L1275.42 64.8787C1270.62 61.9784 1265.77 60.0239 1260.85 59.0151C1256.06 57.8802 1251.27 57.3127 1246.48 57.3127C1239.29 57.3127 1233.93 58.3846 1230.4 60.5283C1226.99 62.672 1225.29 65.3831 1225.29 68.6617C1225.29 71.6882 1226.43 73.958 1228.7 75.4712C1230.97 76.9844 1233.93 78.1823 1237.59 79.065C1241.24 79.9477 1245.28 80.7043 1249.69 81.3348C1254.23 81.8392 1258.71 82.6589 1263.12 83.7938C1267.54 84.9287 1271.57 86.5049 1275.23 88.5226C1279.01 90.4141 1282.04 93.1252 1284.31 96.656C1286.58 100.187 1287.71 104.79 1287.71 110.464C1287.71 116.769 1285.82 122.254 1282.04 126.92C1278.38 131.586 1273.15 135.243 1266.34 137.891C1259.53 140.413 1251.39 141.674 1241.94 141.674ZM1164.85 140.35H1187.36V39.3434H1163.71V51.6382C1159.68 47.2247 1154.89 43.883 1149.34 41.6132C1143.92 39.3434 1137.93 38.2085 1131.37 38.2085C1121.53 38.2085 1112.71 40.3522 1104.89 44.6396C1097.2 48.927 1091.14 54.9798 1086.73 62.7981C1082.44 70.4902 1080.3 79.5064 1080.3 89.8466C1080.3 100.187 1082.44 109.266 1086.73 117.084C1091.14 124.903 1097.2 130.955 1104.89 135.243C1112.71 139.53 1121.53 141.674 1131.37 141.674C1138.3 141.674 1144.61 140.476 1150.28 138.08C1156.08 135.684 1160.94 132.09 1164.85 127.298V140.35ZM1155.58 112.734C1149.91 118.534 1142.72 121.435 1134.02 121.435C1125.32 121.435 1118.13 118.534 1112.45 112.734C1106.91 106.933 1104.13 99.3041 1104.13 89.8466C1104.13 80.3891 1106.91 72.76 1112.45 66.9594C1118.13 61.1588 1125.32 58.2585 1134.02 58.2585C1142.72 58.2585 1149.91 61.1588 1155.58 66.9594C1161.26 72.76 1164.09 80.3891 1164.09 89.8466C1164.09 99.3041 1161.26 106.933 1155.58 112.734ZM1038.39 7.94421H1062.98V140.35H1038.39V83.6045H969.916V140.35H945.326V7.94421H969.916V62.6088H1038.39V7.94421ZM902.907 44.346C910.663 48.4284 916.868 54.3409 921.38 61.9427C925.752 69.2629 928.149 77.9908 928.008 87.7041C928.008 88.2672 927.726 88.6895 927.162 88.8303L860.039 101.922C859.475 102.063 859.052 101.781 858.911 101.359C857.078 96.7136 856.373 91.9273 856.232 87.8449C856.232 87.2818 856.655 87.0003 857.078 86.8595L903.753 77.85C904.318 77.7092 904.74 77.0054 904.599 76.4423C902.907 70.8113 899.664 66.1659 895.011 62.6465C890.075 58.8457 884.011 57.0156 876.961 57.0156C868.218 57.0156 861.167 59.8311 855.809 65.462C852.847 68.559 850.732 72.0783 849.463 76.3015C849.463 76.3015 849.322 76.4423 849.322 76.7238C849.181 76.8646 849.181 76.8646 849.181 77.0054C848.194 80.2432 847.63 83.7625 847.63 87.7041V88.6895C847.63 93.6166 848.335 99.529 851.014 105.019V105.16C851.085 105.23 851.12 105.301 851.155 105.371C851.163 105.388 851.172 105.404 851.18 105.42C851.193 105.445 851.207 105.469 851.223 105.493C851.243 105.523 851.267 105.553 851.296 105.582C852.847 108.679 854.822 111.354 857.36 113.606C858.77 114.873 860.321 115.999 862.013 116.985C867.372 119.941 873.717 121.49 881.191 121.49C891.767 121.49 900.651 118.111 907.843 111.354C908.266 110.932 908.971 111.072 909.394 111.495L920.534 124.446C920.816 124.868 920.816 125.431 920.534 125.854C916.304 130.921 910.804 134.722 904.176 137.397C897.267 140.212 889.511 141.62 880.768 141.62C869.628 141.62 859.898 139.368 851.437 135.004C842.977 130.64 836.49 124.446 831.836 116.563C827.183 108.679 824.927 99.8106 824.927 89.8157C824.927 79.9616 827.183 71.0929 831.695 63.2096C836.208 55.3263 842.412 49.1323 850.309 44.7683C858.206 40.4044 867.09 38.152 877.102 38.152C886.55 38.152 895.152 40.2636 902.907 44.346ZM769.07 38.2085C777.141 38.2085 784.266 39.7847 790.444 42.9373C796.749 46.0898 801.667 50.9446 805.198 57.5019C808.729 63.933 810.494 72.2556 810.494 82.4697V140.35H786.851V85.4961C786.851 76.543 784.896 69.8597 780.987 65.4462C777.078 61.0327 771.466 58.8259 764.152 58.8259C758.982 58.8259 754.38 59.9608 750.344 62.2306C746.435 64.5004 743.346 67.8421 741.076 72.2556C738.932 76.6691 737.861 82.2806 737.861 89.09V140.35H714.217V85.4961C714.217 76.543 712.262 69.8597 708.353 65.4462C704.444 61.0327 698.832 58.8259 691.519 58.8259C686.349 58.8259 681.746 59.9608 677.711 62.2306C673.802 64.5004 670.712 67.8421 668.442 72.2556C666.299 76.6691 665.227 82.2806 665.227 89.09V140.35H641.583V39.3434H664.092V52.1482C667.023 48.5134 670.617 45.5692 674.873 43.3156C681.431 39.9109 688.871 38.2085 697.193 38.2085C706.651 38.2085 714.847 40.5414 721.783 45.2071C725.67 47.7755 728.832 51.0701 731.267 55.0907C734.296 51.1627 738.133 47.8051 742.778 45.0179C750.344 40.4783 759.108 38.2085 769.07 38.2085ZM595.705 140.35H618.214V39.3434H594.57V51.6382C590.535 47.2247 585.743 43.883 580.195 41.6132C574.772 39.3434 568.782 38.2085 562.225 38.2085C552.389 38.2085 543.562 40.3522 535.744 44.6396C528.052 48.927 521.999 54.9798 517.586 62.7981C513.298 70.4902 511.155 79.5064 511.155 89.8466C511.155 100.187 513.298 109.266 517.586 117.084C521.999 124.903 528.052 130.955 535.744 135.243C543.562 139.53 552.389 141.674 562.225 141.674C569.161 141.674 575.466 140.476 581.14 138.08C586.941 135.684 591.796 132.09 595.705 127.298V140.35ZM586.437 112.734C580.762 118.534 573.574 121.435 564.873 121.435C556.172 121.435 548.985 118.534 543.31 112.734C537.762 106.933 534.988 99.3041 534.988 89.8466C534.988 80.3891 537.762 72.76 543.31 66.9594C548.985 61.1588 556.172 58.2585 564.873 58.2585C573.574 58.2585 580.762 61.1588 586.437 66.9594C592.111 72.76 594.948 80.3891 594.948 89.8466C594.948 99.3041 592.111 106.933 586.437 112.734ZM376.182 140.35V7.94421H396.421L469.434 97.5878V7.94421H493.834V140.35H473.595L400.583 50.706V140.35H376.182ZM730.599 309.258C738.417 311.402 746.551 312.474 754.999 312.474C764.457 312.474 772.59 311.213 779.4 308.691C786.209 306.043 791.442 302.386 795.099 297.72C798.882 293.054 800.774 287.569 800.774 281.264C800.774 275.589 799.639 270.987 797.369 267.456C795.099 263.925 792.073 261.214 788.29 259.322C784.633 257.305 780.598 255.729 776.184 254.594C771.771 253.459 767.294 252.639 762.755 252.135C758.341 251.504 754.306 250.748 750.649 249.865C746.992 248.982 744.029 247.784 741.759 246.271C739.489 244.758 738.354 242.488 738.354 239.462C738.354 236.183 740.056 233.472 743.461 231.328C746.992 229.184 752.351 228.113 759.539 228.113C764.331 228.113 769.123 228.68 773.914 229.815C778.832 230.824 783.687 232.778 788.479 235.679L797.558 217.709C793.019 214.935 787.281 212.791 780.346 211.278C773.41 209.765 766.538 209.008 759.728 209.008C750.649 209.008 742.768 210.332 736.084 212.98C729.527 215.502 724.42 219.159 720.763 223.951C717.106 228.617 715.278 234.165 715.278 240.596C715.278 246.397 716.413 251.063 718.682 254.594C720.952 258.124 723.916 260.962 727.573 263.105C731.229 265.123 735.265 266.699 739.678 267.834C744.218 268.843 748.694 269.663 753.108 270.293C757.647 270.924 761.746 271.617 765.403 272.374C769.06 273.13 772.023 274.265 774.293 275.778C776.562 277.166 777.697 279.246 777.697 282.02C777.697 285.425 775.995 288.136 772.59 290.154C769.312 292.172 763.952 293.18 756.513 293.18C750.208 293.18 743.903 292.235 737.597 290.343C731.292 288.452 725.87 286.056 721.331 283.155L712.251 301.125C716.791 304.277 722.907 306.988 730.599 309.258ZM657.672 312.474C649.098 312.474 641.469 310.583 634.785 306.8C630.748 304.515 627.218 301.539 624.193 297.874V311.15H601.684V170.8H625.328V222.502C628.205 219.303 631.483 216.697 635.164 214.683C641.973 210.9 649.476 209.009 657.672 209.009C667.634 209.009 676.398 211.152 683.964 215.44C691.657 219.727 697.709 225.717 702.123 233.409C706.662 241.101 708.932 250.18 708.932 260.647C708.932 271.113 706.662 280.192 702.123 287.885C697.709 295.577 691.657 301.629 683.964 306.043C676.398 310.33 667.634 312.474 657.672 312.474ZM655.024 292.235C660.699 292.235 665.743 290.974 670.156 288.452C674.696 285.93 678.29 282.273 680.938 277.481C683.586 272.689 684.91 267.078 684.91 260.647C684.91 254.09 683.586 248.478 680.938 243.812C678.29 239.021 674.696 235.364 670.156 232.842C665.743 230.32 660.699 229.059 655.024 229.059C649.35 229.059 644.243 230.32 639.703 232.842C635.164 235.364 631.57 239.021 628.922 243.812C626.273 248.478 624.949 254.09 624.949 260.647C624.949 267.078 626.273 272.689 628.922 277.481C631.57 282.273 635.164 285.93 639.703 288.452C644.243 290.974 649.35 292.235 655.024 292.235ZM555.806 311.15H578.315V210.143H554.671V222.438C550.636 218.024 545.844 214.683 540.296 212.413C534.873 210.143 528.884 209.008 522.326 209.008C512.491 209.008 503.664 211.152 495.845 215.439C488.153 219.727 482.1 225.78 477.687 233.598C473.399 241.29 471.256 250.306 471.256 260.646C471.256 270.987 473.399 280.066 477.687 287.884C482.1 295.702 488.153 301.755 495.845 306.043C503.664 310.33 512.491 312.474 522.326 312.474C529.262 312.474 535.567 311.276 541.241 308.88C547.042 306.484 551.897 302.89 555.806 298.098V311.15ZM546.538 283.534C540.863 289.334 533.675 292.235 524.974 292.235C516.274 292.235 509.086 289.334 503.411 283.534C497.863 277.733 495.089 270.104 495.089 260.646C495.089 251.189 497.863 243.56 503.411 237.759C509.086 231.959 516.274 229.058 524.974 229.058C533.675 229.058 540.863 231.959 546.538 237.759C552.212 243.56 555.049 251.189 555.049 260.646C555.049 270.104 552.212 277.733 546.538 283.534ZM376.182 311.15V178.745H400.772V290.343H470.001V311.15H376.182ZM176.899 7.66199H287.552C288.462 7.66199 289.19 8.39026 289.372 9.30054V309.511C289.372 310.422 288.644 311.15 287.734 311.15H176.899C175.989 311.15 175.261 310.422 175.261 309.511V289.485C175.261 272.008 169.255 255.077 158.154 241.604C148.872 230.135 136.314 221.578 122.301 217.209C120.117 216.481 117.933 215.934 115.567 215.388L114.657 215.206C108.105 213.932 89.3596 213.75 84.4458 213.75H83.1718H49.3207C48.4107 213.75 47.6827 213.022 47.6827 212.111V185.167C47.6827 184.257 48.4107 183.528 49.3207 183.528H99.3693C110.289 183.528 121.027 185.167 131.218 188.444C170.711 201.188 200.741 236.507 204.926 279.29V279.654C204.926 280.382 205.655 280.929 206.382 280.929H206.564H257.341C258.251 280.929 258.979 280.2 258.979 279.29V39.5218C258.979 38.6116 258.251 37.8834 257.341 37.8834H207.11C206.2 37.8834 205.473 38.6116 205.473 39.5218V83.2154C205.473 84.1256 204.744 84.8539 203.835 84.8539H201.105C200.091 84.8539 198.999 84.8147 197.829 84.7727C196.477 84.7242 195.021 84.6719 193.461 84.6719C187.637 84.4898 180.903 84.1257 176.717 83.5795C175.807 83.3974 175.261 82.8513 175.261 81.9411V9.30054C175.261 8.39026 175.989 7.66199 176.899 7.66199ZM205.291 101.967H240.416C241.326 101.967 242.053 102.695 242.053 103.606V130.55C242.053 131.46 241.326 132.189 240.416 132.189H190.367C185.089 132.189 179.629 131.642 174.533 130.914C163.978 129.276 153.786 126.181 144.504 121.629C112.655 106.337 89.7236 75.5691 85.1737 39.1578C84.9917 38.4296 84.2638 37.8834 83.5358 37.8834H32.3952C31.4852 37.8834 30.7572 38.6116 30.7572 39.5218V279.108C30.7572 280.018 31.4852 280.746 32.3952 280.746H82.6258C83.5358 280.746 84.2638 280.018 84.2638 279.108V232.138C84.2638 231.227 84.9917 230.499 85.9017 230.499H91.7256C98.4594 230.681 107.559 231.045 112.655 231.773C113.565 231.955 114.111 232.502 114.111 233.412V309.511C114.111 310.422 113.383 311.15 112.473 311.15H1.638C0.728025 311.15 0 310.422 0 309.511V9.30054C0 8.39026 0.728025 7.66199 1.638 7.66199H112.473C113.383 7.66199 114.111 8.39026 114.111 9.30054V26.0497C114.111 43.3451 120.299 60.4584 131.218 73.9305C137.77 81.941 145.96 88.495 155.06 93.2285C161.066 96.3234 167.436 98.6902 173.987 100.147L174.533 100.329L175.079 100.511C179.265 101.239 186.727 101.603 193.279 101.785C199.831 101.967 205.291 101.967 205.291 101.967Z" fill="url(#paint0_linear_5494_58183)"/>
<defs>
<linearGradient id="paint0_linear_5494_58183" x1="0" y1="0" x2="132.867" y2="595.293" gradientUnits="userSpaceOnUse">
<stop stop-color="#FFAF00"/>
<stop offset="1" stop-color="#F112D9"/>
</linearGradient>
</defs>
</svg>
