<svg width="1400" height="313" viewBox="0 0 1400 313" fill="none" xmlns="http://www.w3.org/2000/svg">
<path d="M1357.82 38.2084C1365.89 38.2084 1373.08 39.7847 1379.38 42.9372C1385.81 46.0897 1390.86 50.9446 1394.51 57.5018C1398.17 63.9329 1400 72.2555 1400 82.4697V140.35H1376.36V85.4961C1376.36 76.5429 1374.21 69.8596 1369.93 65.4461C1365.76 61.0326 1359.9 58.8258 1352.33 58.8258C1346.79 58.8258 1341.87 59.9607 1337.58 62.2306C1333.29 64.5004 1329.95 67.9051 1327.56 72.4447C1325.29 76.8582 1324.15 82.4697 1324.15 89.2791V140.35H1300.51V0H1324.15V66.581L1319.04 58.2584C1322.57 51.8273 1327.68 46.9094 1334.36 43.5046C1341.17 39.9738 1348.99 38.2084 1357.82 38.2084Z" fill="black"/>
<path d="M1241.94 141.674C1233.49 141.674 1225.35 140.602 1217.54 138.458C1209.84 136.189 1203.73 133.477 1199.19 130.325L1208.27 112.356C1212.81 115.256 1218.23 117.652 1224.53 119.543C1230.84 121.435 1237.14 122.381 1243.45 122.381C1250.89 122.381 1256.25 121.372 1259.53 119.354C1262.93 117.336 1264.63 114.625 1264.63 111.221C1264.63 108.446 1263.5 106.366 1261.23 104.979C1258.96 103.465 1256 102.331 1252.34 101.574C1248.68 100.817 1244.58 100.124 1240.05 99.4933C1235.63 98.8628 1231.16 98.0431 1226.62 97.0343C1222.2 95.8994 1218.17 94.3232 1214.51 92.3056C1210.85 90.1619 1207.89 87.3246 1205.62 83.7938C1203.35 80.263 1202.21 75.5973 1202.21 69.7966C1202.21 63.3655 1204.04 57.8171 1207.7 53.1514C1211.36 48.3596 1216.46 44.7027 1223.02 42.1807C1229.7 39.5325 1237.59 38.2085 1246.67 38.2085C1253.47 38.2085 1260.35 38.9651 1267.28 40.4783C1274.22 41.9915 1279.96 44.1352 1284.5 46.9094L1275.42 64.8787C1270.62 61.9784 1265.77 60.0239 1260.85 59.0151C1256.06 57.8802 1251.27 57.3127 1246.48 57.3127C1239.29 57.3127 1233.93 58.3846 1230.4 60.5283C1226.99 62.672 1225.29 65.3831 1225.29 68.6617C1225.29 71.6882 1226.43 73.958 1228.7 75.4712C1230.97 76.9844 1233.93 78.1823 1237.59 79.065C1241.24 79.9477 1245.28 80.7043 1249.69 81.3348C1254.23 81.8392 1258.71 82.6589 1263.12 83.7938C1267.54 84.9287 1271.57 86.5049 1275.23 88.5226C1279.01 90.4141 1282.04 93.1252 1284.31 96.656C1286.58 100.187 1287.71 104.79 1287.71 110.464C1287.71 116.769 1285.82 122.254 1282.04 126.92C1278.38 131.586 1273.15 135.243 1266.34 137.891C1259.53 140.413 1251.39 141.674 1241.94 141.674Z" fill="black"/>
<path d="M1187.36 39.3434V140.35H1164.85V127.298C1160.94 132.09 1156.08 135.684 1150.28 138.08C1144.61 140.476 1138.3 141.674 1131.37 141.674C1121.53 141.674 1112.71 139.53 1104.89 135.243C1097.2 130.955 1091.14 124.903 1086.73 117.084C1082.44 109.266 1080.3 100.187 1080.3 89.8466C1080.3 79.5064 1082.44 70.4902 1086.73 62.7981C1091.14 54.9798 1097.2 48.927 1104.89 44.6396C1112.71 40.3522 1121.53 38.2085 1131.37 38.2085C1137.93 38.2085 1143.92 39.3434 1149.34 41.6132C1154.89 43.883 1159.68 47.2247 1163.71 51.6382V39.3434H1187.36ZM1134.02 121.435C1142.72 121.435 1149.91 118.534 1155.58 112.734C1161.26 106.933 1164.09 99.3041 1164.09 89.8466C1164.09 80.3891 1161.26 72.76 1155.58 66.9594C1149.91 61.1588 1142.72 58.2585 1134.02 58.2585C1125.32 58.2585 1118.13 61.1588 1112.45 66.9594C1106.91 72.76 1104.13 80.3891 1104.13 89.8466C1104.13 99.3041 1106.91 106.933 1112.45 112.734C1118.13 118.534 1125.32 121.435 1134.02 121.435Z" fill="black"/>
<path d="M1038.39 7.94421H1062.98V140.35H1038.39V7.94421ZM969.916 140.35H945.326V7.94421H969.916V140.35ZM1040.28 83.6045H967.835V62.6088H1040.28V83.6045Z" fill="black"/>
<path d="M921.38 61.9427C916.868 54.3409 910.663 48.4284 902.907 44.346C895.152 40.2636 886.55 38.152 877.102 38.152C867.09 38.152 858.206 40.4044 850.309 44.7683C842.412 49.1323 836.208 55.3263 831.695 63.2096C827.183 71.0929 824.927 79.9616 824.927 89.8157C824.927 99.8106 827.183 108.679 831.836 116.563C836.49 124.446 842.976 130.64 851.437 135.004C859.898 139.368 869.628 141.62 880.768 141.62C889.511 141.62 897.267 140.212 904.176 137.397C910.804 134.722 916.304 130.921 920.534 125.854C920.816 125.431 920.816 124.868 920.534 124.446L909.394 111.495C908.971 111.072 908.266 110.932 907.843 111.354C900.651 118.111 891.767 121.49 881.191 121.49C873.717 121.49 867.372 119.941 862.013 116.985C860.321 115.999 858.77 114.873 857.36 113.606C854.822 111.354 852.847 108.679 851.296 105.582C851.155 105.442 851.155 105.301 851.014 105.16C851.014 105.16 851.014 105.16 851.014 105.019C848.335 99.529 847.63 93.6166 847.63 88.6895C847.63 88.408 847.63 88.1264 847.63 87.7041C847.63 83.7625 848.194 80.2432 849.181 77.0054C849.181 76.8646 849.181 76.8646 849.322 76.7238C849.322 76.4423 849.463 76.3015 849.463 76.3015C850.732 72.0783 852.847 68.559 855.809 65.462C861.167 59.8311 868.218 57.0156 876.961 57.0156C884.011 57.0156 890.075 58.8457 895.011 62.6465C899.664 66.1659 902.907 70.8113 904.599 76.4423C904.74 77.0054 904.317 77.7092 903.753 77.85L857.078 86.8595C856.655 87.0003 856.232 87.2818 856.232 87.8449C856.373 91.9273 857.078 96.7136 858.911 101.359C859.052 101.781 859.475 102.063 860.039 101.922L927.162 88.8303C927.726 88.6895 928.008 88.2672 928.008 87.7041C928.149 77.9908 925.752 69.2629 921.38 61.9427Z" fill="black"/>
<path d="M769.07 38.2085C777.141 38.2085 784.266 39.7847 790.444 42.9373C796.749 46.0898 801.667 50.9446 805.198 57.5019C808.729 63.933 810.494 72.2556 810.494 82.4697V140.35H786.851V85.4961C786.851 76.543 784.896 69.8597 780.987 65.4462C777.078 61.0327 771.466 58.8259 764.152 58.8259C758.982 58.8259 754.38 59.9608 750.344 62.2306C746.435 64.5004 743.346 67.8421 741.076 72.2556C738.932 76.6691 737.861 82.2806 737.861 89.09V140.35H714.217V85.4961C714.217 76.543 712.262 69.8597 708.353 65.4462C704.444 61.0327 698.832 58.8259 691.519 58.8259C686.349 58.8259 681.746 59.9608 677.711 62.2306C673.802 64.5004 670.712 67.8421 668.442 72.2556C666.299 76.6691 665.227 82.2806 665.227 89.09V140.35H641.583V39.3434H664.092V66.2028L660.12 58.2585C663.524 51.7012 668.442 46.7203 674.873 43.3156C681.431 39.9109 688.871 38.2085 697.193 38.2085C706.651 38.2085 714.847 40.5414 721.783 45.2071C728.844 49.8728 733.51 56.9344 735.78 66.3919L726.511 63.1764C729.79 55.6104 735.212 49.5575 742.778 45.0179C750.344 40.4783 759.108 38.2085 769.07 38.2085Z" fill="black"/>
<path d="M618.214 39.3434V140.35H595.705V127.298C591.796 132.09 586.941 135.684 581.14 138.08C575.466 140.476 569.161 141.674 562.225 141.674C552.389 141.674 543.562 139.53 535.744 135.243C528.052 130.955 521.999 124.903 517.586 117.084C513.298 109.266 511.155 100.187 511.155 89.8466C511.155 79.5064 513.298 70.4902 517.586 62.7981C521.999 54.9798 528.052 48.927 535.744 44.6396C543.562 40.3522 552.389 38.2085 562.225 38.2085C568.782 38.2085 574.772 39.3434 580.195 41.6132C585.743 43.883 590.535 47.2247 594.57 51.6382V39.3434H618.214ZM564.873 121.435C573.574 121.435 580.762 118.534 586.437 112.734C592.111 106.933 594.948 99.3041 594.948 89.8466C594.948 80.3891 592.111 72.76 586.437 66.9594C580.762 61.1588 573.574 58.2585 564.873 58.2585C556.172 58.2585 548.985 61.1588 543.31 66.9594C537.762 72.76 534.988 80.3891 534.988 89.8466C534.988 99.3041 537.762 106.933 543.31 112.734C548.985 118.534 556.172 121.435 564.873 121.435Z" fill="black"/>
<path d="M376.182 140.35V7.94421H396.421L479.458 109.896H469.434V7.94421H493.834V140.35H473.595L390.558 38.3975H400.583V140.35H376.182Z" fill="black"/>
<path d="M754.999 312.474C746.551 312.474 738.417 311.402 730.599 309.258C722.907 306.988 716.791 304.277 712.251 301.125L721.33 283.155C725.87 286.056 731.292 288.452 737.597 290.343C743.902 292.235 750.208 293.18 756.513 293.18C763.952 293.18 769.312 292.172 772.59 290.154C775.995 288.136 777.697 285.425 777.697 282.02C777.697 279.246 776.563 277.166 774.293 275.778C772.023 274.265 769.06 273.13 765.403 272.374C761.746 271.617 757.647 270.924 753.108 270.293C748.694 269.663 744.218 268.843 739.678 267.834C735.265 266.699 731.229 265.123 727.573 263.105C723.916 260.962 720.952 258.124 718.682 254.594C716.413 251.063 715.278 246.397 715.278 240.596C715.278 234.165 717.106 228.617 720.763 223.951C724.42 219.159 729.527 215.502 736.084 212.98C742.768 210.332 750.649 209.008 759.728 209.008C766.538 209.008 773.41 209.765 780.346 211.278C787.281 212.791 793.019 214.935 797.558 217.709L788.479 235.679C783.687 232.778 778.832 230.824 773.914 229.815C769.123 228.68 764.331 228.113 759.539 228.113C752.351 228.113 746.992 229.184 743.461 231.328C740.056 233.472 738.354 236.183 738.354 239.462C738.354 242.488 739.489 244.758 741.759 246.271C744.029 247.784 746.992 248.982 750.649 249.865C754.306 250.748 758.341 251.504 762.754 252.135C767.294 252.639 771.771 253.459 776.184 254.594C780.598 255.728 784.633 257.305 788.29 259.322C792.073 261.214 795.099 263.925 797.369 267.456C799.639 270.987 800.774 275.589 800.774 281.264C800.774 287.569 798.882 293.054 795.099 297.72C791.442 302.386 786.209 306.043 779.4 308.691C772.59 311.213 764.457 312.474 754.999 312.474Z" fill="black"/>
<path d="M657.672 312.474C649.098 312.474 641.469 310.583 634.785 306.8C628.102 303.017 622.806 297.342 618.897 289.776C615.114 282.084 613.222 272.374 613.222 260.647C613.222 248.793 615.177 239.084 619.086 231.518C623.121 223.952 628.48 218.34 635.164 214.683C641.973 210.9 649.476 209.009 657.672 209.009C667.634 209.009 676.398 211.152 683.964 215.44C691.657 219.727 697.709 225.717 702.123 233.409C706.662 241.101 708.932 250.181 708.932 260.647C708.932 271.113 706.662 280.192 702.123 287.885C697.709 295.577 691.657 301.629 683.964 306.043C676.398 310.33 667.634 312.474 657.672 312.474ZM601.684 311.15V170.8H625.328V233.598L623.436 260.458L624.193 287.317V311.15H601.684ZM655.024 292.235C660.699 292.235 665.743 290.974 670.156 288.452C674.696 285.93 678.29 282.273 680.938 277.481C683.586 272.689 684.91 267.078 684.91 260.647C684.91 254.09 683.586 248.478 680.938 243.812C678.29 239.021 674.696 235.364 670.156 232.842C665.743 230.32 660.699 229.059 655.024 229.059C649.35 229.059 644.243 230.32 639.703 232.842C635.164 235.364 631.57 239.021 628.922 243.812C626.273 248.478 624.949 254.09 624.949 260.647C624.949 267.078 626.273 272.689 628.922 277.481C631.57 282.273 635.164 285.93 639.703 288.452C644.243 290.974 649.35 292.235 655.024 292.235Z" fill="black"/>
<path d="M578.315 210.143V311.15H555.806V298.098C551.897 302.89 547.042 306.484 541.241 308.88C535.567 311.276 529.262 312.474 522.326 312.474C512.491 312.474 503.664 310.33 495.845 306.043C488.153 301.755 482.1 295.702 477.687 287.884C473.399 280.066 471.256 270.987 471.256 260.646C471.256 250.306 473.399 241.29 477.687 233.598C482.1 225.78 488.153 219.727 495.845 215.439C503.664 211.152 512.491 209.008 522.326 209.008C528.884 209.008 534.873 210.143 540.296 212.413C545.844 214.683 550.636 218.024 554.671 222.438V210.143H578.315ZM524.974 292.235C533.675 292.235 540.863 289.334 546.538 283.534C552.212 277.733 555.049 270.104 555.049 260.646C555.049 251.189 552.212 243.56 546.538 237.759C540.863 231.959 533.675 229.058 524.974 229.058C516.274 229.058 509.086 231.959 503.411 237.759C497.863 243.56 495.089 251.189 495.089 260.646C495.089 270.104 497.863 277.733 503.411 283.534C509.086 289.334 516.274 292.235 524.974 292.235Z" fill="black"/>
<path d="M376.182 311.15V178.745H400.772V290.343H470.001V311.15H376.182Z" fill="black"/>
<path d="M287.552 7.66199H176.899C175.989 7.66199 175.261 8.39026 175.261 9.30054V81.9411C175.261 82.8513 175.807 83.3974 176.717 83.5795C180.903 84.1257 187.637 84.4898 193.461 84.6719C196.373 84.6719 198.921 84.8539 201.105 84.8539H203.835C204.744 84.8539 205.473 84.1256 205.473 83.2154V39.5218C205.473 38.6116 206.2 37.8834 207.11 37.8834H257.341C258.251 37.8834 258.979 38.6116 258.979 39.5218V279.29C258.979 280.2 258.251 280.929 257.341 280.929H206.564C206.564 280.929 206.564 280.929 206.382 280.929C205.655 280.929 204.927 280.382 204.927 279.654C204.927 279.472 204.927 279.472 204.927 279.29C200.741 236.507 170.711 201.188 131.218 188.444C121.027 185.167 110.289 183.528 99.3693 183.528H49.3207C48.4107 183.528 47.6827 184.257 47.6827 185.167V212.111C47.6827 213.022 48.4107 213.75 49.3207 213.75H83.1718C83.1718 213.75 83.5358 213.75 84.4458 213.75C89.3596 213.75 108.105 213.932 114.657 215.206L115.567 215.388C117.933 215.934 120.117 216.481 122.301 217.209C136.314 221.578 148.872 230.135 158.154 241.604C169.255 255.077 175.261 272.008 175.261 289.485V309.511C175.261 310.422 175.989 311.15 176.899 311.15H287.734C288.644 311.15 289.372 310.422 289.372 309.511V9.30054C289.19 8.39026 288.462 7.66199 287.552 7.66199ZM240.416 101.967H205.291C205.291 101.967 199.831 101.967 193.279 101.785C186.727 101.603 179.265 101.239 175.079 100.511L174.533 100.329L173.987 100.147C167.436 98.6902 161.066 96.3234 155.06 93.2285C145.96 88.495 137.77 81.941 131.218 73.9305C120.299 60.4584 114.111 43.3451 114.111 26.0497V9.30054C114.111 8.39026 113.383 7.66199 112.473 7.66199H1.638C0.728025 7.66199 0 8.39026 0 9.30054V309.511C0 310.422 0.728025 311.15 1.638 311.15H112.473C113.383 311.15 114.111 310.422 114.111 309.511V233.412C114.111 232.502 113.565 231.955 112.655 231.773C107.559 231.045 98.4594 230.681 91.7256 230.499H85.9017C84.9917 230.499 84.2638 231.227 84.2638 232.138V279.108C84.2638 280.018 83.5358 280.746 82.6258 280.746H32.3952C31.4852 280.746 30.7572 280.018 30.7572 279.108V39.5218C30.7572 38.6116 31.4852 37.8834 32.3952 37.8834H83.5358C84.2638 37.8834 84.9917 38.4296 85.1737 39.1578C89.7236 75.5691 112.655 106.337 144.504 121.629C153.786 126.181 163.978 129.276 174.533 130.914C179.629 131.642 185.089 132.189 190.367 132.189H240.416C241.326 132.189 242.053 131.46 242.053 130.55V103.606C242.053 102.695 241.326 101.967 240.416 101.967Z" fill="black"/>
</svg>
